<svg xmlns="http://www.w3.org/2000/svg" xmlns:xlink="http://www.w3.org/1999/xlink" width="500" zoomAndPan="magnify" viewBox="0 0 375 374.999991" height="500" preserveAspectRatio="xMidYMid meet" version="1.0"><defs><g/><clipPath id="30536dfe6f"><path d="M 64.984375 64.984375 L 310.015625 64.984375 L 310.015625 310.015625 L 64.984375 310.015625 Z M 64.984375 64.984375 " clip-rule="nonzero"/></clipPath><clipPath id="142b87e35a"><path d="M 187.5 64.984375 C 119.835938 64.984375 64.984375 119.835938 64.984375 187.5 C 64.984375 255.164062 119.835938 310.015625 187.5 310.015625 C 255.164062 310.015625 310.015625 255.164062 310.015625 187.5 C 310.015625 119.835938 255.164062 64.984375 187.5 64.984375 Z M 187.5 64.984375 " clip-rule="nonzero"/></clipPath><clipPath id="13fc0944cb"><path d="M 78.375 78.375 L 296.613281 78.375 L 296.613281 296.613281 L 78.375 296.613281 Z M 78.375 78.375 " clip-rule="nonzero"/></clipPath><clipPath id="2a1e876a89"><path d="M 187.496094 78.375 C 127.230469 78.375 78.375 127.230469 78.375 187.496094 C 78.375 247.761719 127.230469 296.613281 187.496094 296.613281 C 247.761719 296.613281 296.613281 247.761719 296.613281 187.496094 C 296.613281 127.230469 247.761719 78.375 187.496094 78.375 Z M 187.496094 78.375 " clip-rule="nonzero"/></clipPath><clipPath id="1c9566885c"><path d="M 124.625 124.625 L 250.625 124.625 L 250.625 250.625 L 124.625 250.625 Z M 124.625 124.625 " clip-rule="nonzero"/></clipPath></defs><g clip-path="url(#30536dfe6f)"><g clip-path="url(#142b87e35a)"><path fill="#cbddb8" d="M 64.984375 64.984375 L 310.015625 64.984375 L 310.015625 310.015625 L 64.984375 310.015625 Z M 64.984375 64.984375 " fill-opacity="1" fill-rule="nonzero"/></g></g><g clip-path="url(#13fc0944cb)"><g clip-path="url(#2a1e876a89)"><path stroke-linecap="butt" transform="matrix(0.75, 0, 0, 0.75, 78.376113, 78.376108)" fill="none" stroke-linejoin="miter" d="M 145.493317 -0.00147794 C 65.139145 -0.00147794 -0.00148394 65.139151 -0.00148394 145.493323 C -0.00148394 225.847495 65.139145 290.982916 145.493317 290.982916 C 225.847489 290.982916 290.98291 225.847495 290.98291 145.493323 C 290.98291 65.139151 225.847489 -0.00147794 145.493317 -0.00147794 Z M 145.493317 -0.00147794 " stroke="#000000" stroke-width="10" stroke-opacity="1" stroke-miterlimit="4"/></g></g><g clip-path="url(#1c9566885c)"><path fill="#000000" d="M 181.933594 216.640625 L 173.949219 210.539062 C 174.496094 207.136719 171.894531 203.582031 170.222656 201.695312 C 169.875 201.304688 169.28125 201.269531 168.890625 201.617188 C 168.5 201.960938 168.464844 202.558594 168.8125 202.949219 C 169.820312 204.085938 171.875 206.679688 172.113281 209.136719 L 166.5 204.847656 C 166.765625 203.175781 166.304688 201.289062 165.121094 199.222656 C 164.859375 198.769531 164.285156 198.613281 163.832031 198.871094 C 163.378906 199.132812 163.222656 199.707031 163.484375 200.160156 C 164.125 201.273438 164.796875 202.832031 164.667969 204.289062 C 164.59375 204.34375 164.523438 204.402344 164.464844 204.476562 C 164.148438 204.894531 164.226562 205.484375 164.644531 205.800781 L 167.816406 208.226562 C 165.949219 208.535156 163.378906 207.925781 160.589844 206.472656 C 160.128906 206.230469 159.558594 206.40625 159.316406 206.871094 C 159.074219 207.332031 159.253906 207.902344 159.71875 208.144531 C 161.621094 209.136719 166.242188 211.171875 169.65625 209.632812 L 175.261719 213.914062 C 173.394531 214.226562 170.824219 213.617188 168.039062 212.160156 C 167.574219 211.921875 167.007812 212.101562 166.765625 212.5625 C 166.523438 213.023438 166.703125 213.59375 167.164062 213.832031 C 169.070312 214.828125 173.691406 216.863281 177.105469 215.324219 L 180.789062 218.136719 C 174.699219 219.394531 167.65625 217.742188 162.355469 213.707031 C 156.988281 209.621094 154.089844 203.566406 154.152344 196.597656 C 160.859375 194.707031 167.460938 195.914062 172.8125 200.019531 C 178.101562 204.074219 181.546875 210.433594 181.933594 216.640625 Z M 152.945312 194.992188 L 152.308594 195.1875 L 152.285156 195.855469 C 152 203.738281 155.171875 210.609375 161.210938 215.207031 C 167.527344 220.011719 176.152344 221.683594 183.183594 219.460938 L 183.816406 219.261719 L 183.839844 218.601562 C 184.136719 211.234375 180.257812 203.351562 173.960938 198.523438 C 167.9375 193.898438 160.476562 192.644531 152.945312 194.992188 Z M 212.621094 213.707031 C 207.316406 217.742188 200.277344 219.394531 194.1875 218.136719 L 197.871094 215.324219 C 201.285156 216.863281 205.90625 214.828125 207.808594 213.832031 C 208.273438 213.59375 208.453125 213.023438 208.210938 212.5625 C 207.96875 212.101562 207.398438 211.921875 206.9375 212.160156 C 204.148438 213.617188 201.578125 214.226562 199.710938 213.914062 L 205.316406 209.632812 C 208.734375 211.171875 213.355469 209.136719 215.257812 208.144531 C 215.71875 207.902344 215.898438 207.332031 215.660156 206.871094 C 215.417969 206.40625 214.847656 206.230469 214.386719 206.472656 C 211.597656 207.925781 209.027344 208.535156 207.160156 208.226562 L 210.332031 205.800781 C 210.746094 205.484375 210.828125 204.894531 210.511719 204.476562 C 210.453125 204.402344 210.382812 204.34375 210.308594 204.289062 C 210.179688 202.832031 210.851562 201.273438 211.492188 200.160156 C 211.75 199.707031 211.59375 199.132812 211.144531 198.871094 C 210.691406 198.613281 210.113281 198.769531 209.855469 199.222656 C 208.671875 201.289062 208.207031 203.175781 208.476562 204.847656 L 202.863281 209.136719 C 203.097656 206.679688 205.15625 204.085938 206.164062 202.949219 C 206.511719 202.558594 206.476562 201.960938 206.085938 201.617188 C 205.695312 201.269531 205.101562 201.304688 204.753906 201.695312 C 203.082031 203.582031 200.480469 207.136719 201.027344 210.539062 L 193.042969 216.640625 C 193.429688 210.433594 196.875 204.074219 202.160156 200.019531 C 207.511719 195.914062 214.117188 194.707031 220.824219 196.597656 C 220.886719 203.566406 217.988281 209.621094 212.621094 213.707031 Z M 222.667969 195.1875 L 222.03125 194.992188 C 214.5 192.644531 207.039062 193.898438 201.015625 198.523438 C 194.71875 203.351562 190.839844 211.234375 191.132812 218.601562 L 191.160156 219.261719 L 191.792969 219.460938 C 198.824219 221.683594 207.449219 220.011719 213.761719 215.207031 C 219.804688 210.609375 222.976562 203.738281 222.691406 195.855469 Z M 188.804688 247.710938 L 188.804688 207.128906 C 196.894531 201.128906 202.105469 190.40625 202.128906 179.589844 C 202.148438 169.003906 197.21875 159.675781 188.25 153.316406 L 187.488281 152.777344 L 186.726562 153.316406 C 177.757812 159.675781 172.828125 169.003906 172.847656 179.589844 C 172.871094 190.40625 178.082031 201.128906 186.171875 207.128906 L 186.171875 247.710938 C 153.5625 247.007812 127.25 220.261719 127.25 187.488281 C 127.25 154.273438 154.273438 127.25 187.488281 127.25 C 220.703125 127.25 247.726562 154.273438 247.726562 187.488281 C 247.726562 220.261719 221.414062 247.007812 188.804688 247.710938 Z M 194.496094 183.503906 C 193.78125 183.378906 193.097656 183.859375 192.976562 184.574219 C 192.226562 188.894531 190.726562 192.257812 188.804688 194.066406 L 188.804688 184.230469 C 193.398438 181.746094 195.054688 174.902344 195.566406 171.953125 C 195.691406 171.238281 195.210938 170.558594 194.496094 170.433594 C 193.78125 170.308594 193.097656 170.789062 192.976562 171.503906 C 192.226562 175.824219 190.726562 179.1875 188.804688 180.996094 L 188.804688 175.429688 C 188.804688 174.703125 188.214844 174.113281 187.488281 174.113281 C 187.355469 174.113281 187.226562 174.140625 187.105469 174.175781 C 185.382812 173.085938 184.226562 171.023438 183.53125 169.367188 C 183.25 168.699219 182.480469 168.382812 181.8125 168.664062 C 181.140625 168.945312 180.828125 169.71875 181.109375 170.386719 C 182.394531 173.453125 184.097656 175.5625 186.171875 176.679688 L 186.171875 186.527344 C 183.652344 184.1875 182.519531 179.714844 182.113281 177.628906 C 181.972656 176.917969 181.28125 176.453125 180.570312 176.59375 C 179.855469 176.730469 179.390625 177.421875 179.53125 178.132812 C 180.203125 181.582031 181.945312 187.476562 186.171875 189.746094 L 186.171875 203.761719 C 179.625 198.078125 175.496094 188.878906 175.476562 179.585938 C 175.460938 170.183594 179.714844 161.847656 187.488281 156.015625 C 195.261719 161.847656 199.515625 170.183594 199.496094 179.585938 C 199.476562 188.878906 195.347656 198.078125 188.804688 203.761719 L 188.804688 197.300781 C 193.398438 194.816406 195.054688 187.972656 195.566406 185.023438 C 195.691406 184.308594 195.210938 183.628906 194.496094 183.503906 Z M 231.941406 143.035156 C 220.066406 131.160156 204.28125 124.621094 187.488281 124.621094 C 170.695312 124.621094 154.90625 131.160156 143.035156 143.035156 C 131.160156 154.90625 124.621094 170.695312 124.621094 187.488281 C 124.621094 204.28125 131.160156 220.066406 143.035156 231.941406 C 154.90625 243.816406 170.695312 250.355469 187.488281 250.355469 C 204.28125 250.355469 220.066406 243.816406 231.941406 231.941406 C 243.816406 220.066406 250.355469 204.28125 250.355469 187.488281 C 250.355469 170.695312 243.816406 154.90625 231.941406 143.035156 " fill-opacity="1" fill-rule="nonzero"/></g><g fill="#000000" fill-opacity="1"><g transform="translate(117.536486, 184.499521)"><g><path d="M -12.3125 -10.5 L -21.5 -15.015625 L -20.75 -19.203125 L -5.703125 -11.375 L 1.78125 -10.046875 L 1.046875 -5.859375 L -6.4375 -7.1875 L -23.28125 -5 L -22.53125 -9.1875 L -12.359375 -10.234375 Z M -12.3125 -10.5 "/></g></g></g><g fill="#000000" fill-opacity="1"><g transform="translate(119.787464, 170.207412)"><g><path d="M -19.328125 -16.96875 L -18.78125 -18.3125 C -18.34375 -19.363281 -17.6875 -20.21875 -16.8125 -20.875 C -15.9375 -21.53125 -14.957031 -21.929688 -13.875 -22.078125 C -12.789062 -22.234375 -11.722656 -22.09375 -10.671875 -21.65625 L 0.9375 -16.8125 C 1.976562 -16.375 2.820312 -15.71875 3.46875 -14.84375 C 4.125 -13.976562 4.523438 -13.003906 4.671875 -11.921875 C 4.828125 -10.835938 4.6875 -9.769531 4.25 -8.71875 L 3.703125 -7.375 C 3.265625 -6.332031 2.601562 -5.484375 1.71875 -4.828125 C 0.84375 -4.171875 -0.128906 -3.765625 -1.203125 -3.609375 C -2.285156 -3.460938 -3.347656 -3.609375 -4.390625 -4.046875 L -16 -8.890625 C -17.050781 -9.328125 -17.90625 -9.976562 -18.5625 -10.84375 C -19.21875 -11.71875 -19.617188 -12.695312 -19.765625 -13.78125 C -19.910156 -14.863281 -19.765625 -15.925781 -19.328125 -16.96875 Z M -0.53125 -12.640625 L -12.640625 -17.6875 C -13.140625 -17.894531 -13.644531 -17.894531 -14.15625 -17.6875 C -14.675781 -17.476562 -15.039062 -17.113281 -15.25 -16.59375 L -15.640625 -15.6875 C -15.847656 -15.1875 -15.84375 -14.679688 -15.625 -14.171875 C -15.40625 -13.671875 -15.046875 -13.316406 -14.546875 -13.109375 L -2.4375 -8.0625 C -1.925781 -7.84375 -1.414062 -7.832031 -0.90625 -8.03125 C -0.394531 -8.238281 -0.0351562 -8.59375 0.171875 -9.09375 L 0.5625 -10 C 0.769531 -10.519531 0.765625 -11.035156 0.546875 -11.546875 C 0.335938 -12.054688 -0.0195312 -12.421875 -0.53125 -12.640625 Z M -0.53125 -12.640625 "/></g></g></g><g fill="#000000" fill-opacity="1"><g transform="translate(125.819469, 155.231803)"><g><path d="M 2.25 -12.28125 L -12.71875 -23.046875 L -10.140625 -26.640625 L 4.625 -16.03125 C 5.539062 -15.363281 6.21875 -14.53125 6.65625 -13.53125 C 7.09375 -12.539062 7.257812 -11.5 7.15625 -10.40625 C 7.0625 -9.3125 6.6875 -8.300781 6.03125 -7.375 L 5.28125 -6.34375 C 4.613281 -5.414062 3.773438 -4.734375 2.765625 -4.296875 C 1.765625 -3.859375 0.726562 -3.6875 -0.34375 -3.78125 C -1.425781 -3.882812 -2.425781 -4.269531 -3.34375 -4.9375 L -18.109375 -15.546875 L -15.546875 -19.125 L -0.578125 -8.359375 C -0.128906 -8.035156 0.367188 -7.921875 0.921875 -8.015625 C 1.484375 -8.109375 1.925781 -8.375 2.25 -8.8125 L 2.71875 -9.46875 C 3.039062 -9.925781 3.15625 -10.425781 3.0625 -10.96875 C 2.96875 -11.519531 2.695312 -11.957031 2.25 -12.28125 Z M 2.25 -12.28125 "/></g></g></g><g fill="#000000" fill-opacity="1"><g transform="translate(135.059223, 142.129237)"><g><path d="M 3 -13.84375 L 3.203125 -13.625 L 12.09375 -10.71875 L 8.640625 -7.671875 L 0 -10.4375 L -0.15625 -10.296875 L 5.046875 -4.453125 L 1.859375 -1.640625 L -14 -19.4375 L -9.171875 -23.703125 C -8.335938 -24.441406 -7.382812 -24.910156 -6.3125 -25.109375 C -5.25 -25.316406 -4.195312 -25.257812 -3.15625 -24.9375 C -2.113281 -24.613281 -1.222656 -24.03125 -0.484375 -23.1875 L 1.953125 -20.4375 C 2.796875 -19.507812 3.296875 -18.445312 3.453125 -17.25 C 3.617188 -16.0625 3.46875 -14.925781 3 -13.84375 Z M -2.671875 -13.0625 L -1.203125 -14.359375 C -0.796875 -14.710938 -0.570312 -15.171875 -0.53125 -15.734375 C -0.5 -16.296875 -0.675781 -16.769531 -1.0625 -17.15625 L -4.0625 -20.5625 C -4.414062 -20.96875 -4.875 -21.1875 -5.4375 -21.21875 C -6 -21.257812 -6.484375 -21.097656 -6.890625 -20.734375 L -8.34375 -19.453125 Z M -2.671875 -13.0625 "/></g></g></g><g fill="#000000" fill-opacity="1"><g transform="translate(147.089793, 131.815466)"><g/></g></g><g fill="#000000" fill-opacity="1"><g transform="translate(153.516228, 127.265729)"><g><path d="M 1.0625 -15.234375 L 5.328125 -16.9375 L 1.609375 -26.265625 L 5.5625 -27.828125 L 14.375 -5.71875 L 10.421875 -4.15625 L 6.703125 -13.46875 L 2.4375 -11.765625 L 6.15625 -2.453125 L 2.203125 -0.875 L -6.609375 -22.984375 L -2.65625 -24.5625 Z M 1.0625 -15.234375 "/></g></g></g><g fill="#000000" fill-opacity="1"><g transform="translate(168.626175, 121.242529)"><g><path d="M 8.53125 -11.640625 L 4.84375 -11.015625 L 5.90625 -4.8125 L 12.6875 -5.96875 L 13.3125 -2.28125 L 2.34375 -0.40625 L -1.671875 -23.859375 L 8.78125 -25.640625 L 9.40625 -21.96875 L 3.140625 -20.90625 L 4.203125 -14.6875 L 7.890625 -15.3125 Z M 8.53125 -11.640625 "/></g></g></g><g fill="#000000" fill-opacity="1"><g transform="translate(181.643907, 118.79499)"><g><path d="M 0.84375 0.03125 L 6.453125 -23.609375 L 11.046875 -23.46875 L 15.265625 0.453125 L 11.015625 0.328125 L 10.265625 -4.359375 L 6.125 -4.484375 L 5.09375 0.15625 Z M 8.328125 -14.6875 L 6.90625 -8.1875 L 9.671875 -8.109375 L 8.625 -14.6875 Z M 8.328125 -14.6875 "/></g></g></g><g fill="#000000" fill-opacity="1"><g transform="translate(196.299574, 119.155567)"><g><path d="M 7.703125 -22.640625 L 11.84375 -21.671875 L 7.296875 -2.140625 L 14.28125 -0.515625 L 13.4375 3.125 L 2.3125 0.53125 Z M 7.703125 -22.640625 "/></g></g></g><g fill="#000000" fill-opacity="1"><g transform="translate(209.261911, 122.007368)"><g><path d="M 8.96875 -17.96875 L 10.5 -21.375 L 22.796875 -15.859375 L 21.265625 -12.453125 L 17.078125 -14.34375 L 8.875 3.96875 L 4.984375 2.234375 L 13.1875 -16.078125 Z M 8.96875 -17.96875 "/></g></g></g><g fill="#000000" fill-opacity="1"><g transform="translate(221.783233, 127.276215)"><g><path d="M 13.5 -7.171875 L 17.1875 -4.453125 L 23.125 -12.53125 L 26.5625 -10 L 12.46875 9.171875 L 9.03125 6.640625 L 14.96875 -1.4375 L 11.28125 -4.15625 L 5.34375 3.921875 L 1.90625 1.40625 L 16 -17.765625 L 19.4375 -15.25 Z M 13.5 -7.171875 "/></g></g></g><g fill="#000000" fill-opacity="1"><g transform="translate(235.013896, 137.358283)"><g/></g></g><g fill="#000000" fill-opacity="1"><g transform="translate(240.789089, 142.859926)"><g><path d="M 0.46875 0.703125 L 22.90625 -8.640625 L 25.484375 -4.84375 L 8.59375 12.625 L 6.203125 9.109375 L 9.546875 5.75 L 7.203125 2.328125 L 2.859375 4.21875 Z M 16.78125 -1.859375 L 10.6875 0.78125 L 12.234375 3.078125 L 16.953125 -1.625 Z M 16.78125 -1.859375 "/></g></g></g><g fill="#000000" fill-opacity="1"><g transform="translate(249.122259, 154.796094)"><g><path d="M 22.9375 -6.796875 L 25.40625 -0.734375 C 25.84375 0.316406 25.984375 1.382812 25.828125 2.46875 C 25.671875 3.550781 25.265625 4.519531 24.609375 5.375 C 23.953125 6.238281 23.097656 6.890625 22.046875 7.328125 L 17.375 9.265625 C 16.320312 9.703125 15.257812 9.84375 14.1875 9.6875 C 13.113281 9.53125 12.140625 9.125 11.265625 8.46875 C 10.398438 7.8125 9.742188 6.96875 9.296875 5.9375 L 8.40625 3.75 L 2.53125 6.203125 L 0.890625 2.28125 Z M 11.859375 2.34375 L 12.65625 4.265625 C 12.863281 4.796875 13.222656 5.164062 13.734375 5.375 C 14.242188 5.582031 14.753906 5.582031 15.265625 5.375 L 20.75 3.078125 C 21.28125 2.859375 21.648438 2.5 21.859375 2 C 22.066406 1.5 22.066406 0.988281 21.859375 0.46875 L 21.0625 -1.46875 Z M 11.859375 2.34375 "/></g></g></g><g fill="#000000" fill-opacity="1"><g transform="translate(254.869474, 168.409992)"><g><path d="M 23.84375 -1.859375 L 25 4.59375 C 25.195312 5.707031 25.109375 6.773438 24.734375 7.796875 C 24.359375 8.828125 23.757812 9.695312 22.9375 10.40625 C 22.125 11.125 21.15625 11.582031 20.03125 11.78125 L 15.046875 12.703125 C 13.929688 12.898438 12.863281 12.804688 11.84375 12.421875 C 10.820312 12.046875 9.957031 11.445312 9.25 10.625 C 8.539062 9.8125 8.078125 8.851562 7.859375 7.75 L 7.4375 5.421875 L 1.1875 6.59375 L 0.40625 2.421875 Z M 11.109375 4.765625 L 11.484375 6.8125 C 11.578125 7.375 11.851562 7.8125 12.3125 8.125 C 12.769531 8.4375 13.269531 8.539062 13.8125 8.4375 L 19.65625 7.34375 C 20.21875 7.25 20.65625 6.972656 20.96875 6.515625 C 21.28125 6.066406 21.382812 5.566406 21.28125 5.015625 L 20.921875 2.96875 Z M 11.109375 4.765625 "/></g></g></g><g fill="#000000" fill-opacity="1"><g transform="translate(118.084649, 247.991916)"><g><path d="M 10.1875 -2.46875 L 16.046875 -5.578125 L 17.953125 -3.59375 L 8.125 1.328125 L 4.578125 4.75 L 2.671875 2.765625 L 6.21875 -0.65625 L 11.46875 -10.3125 L 13.390625 -8.328125 L 10.078125 -2.59375 Z M 10.1875 -2.46875 "/></g></g></g><g fill="#000000" fill-opacity="1"><g transform="translate(126.419352, 256.483658)"><g><path d="M 10.703125 -6 L 11.46875 -5.40625 C 11.96875 -5 12.328125 -4.503906 12.546875 -3.921875 C 12.765625 -3.335938 12.832031 -2.738281 12.75 -2.125 C 12.675781 -1.507812 12.429688 -0.941406 12.015625 -0.421875 L 9.109375 3.203125 C 8.703125 3.710938 8.203125 4.078125 7.609375 4.296875 C 7.023438 4.523438 6.425781 4.597656 5.8125 4.515625 C 5.195312 4.429688 4.640625 4.1875 4.140625 3.78125 L 3.375 3.1875 C 2.875 2.78125 2.507812 2.285156 2.28125 1.703125 C 2.0625 1.117188 2 0.519531 2.09375 -0.09375 C 2.1875 -0.71875 2.4375 -1.285156 2.84375 -1.796875 L 5.75 -5.421875 C 6.164062 -5.941406 6.660156 -6.3125 7.234375 -6.53125 C 7.804688 -6.75 8.398438 -6.816406 9.015625 -6.734375 C 9.640625 -6.648438 10.203125 -6.40625 10.703125 -6 Z M 7.015625 1.75 L 10.125 -2.125 C 10.320312 -2.375 10.398438 -2.65625 10.359375 -2.96875 C 10.316406 -3.289062 10.175781 -3.546875 9.9375 -3.734375 L 9.4375 -4.125 C 9.1875 -4.332031 8.90625 -4.414062 8.59375 -4.375 C 8.289062 -4.34375 8.039062 -4.203125 7.84375 -3.953125 L 4.734375 -0.078125 C 4.535156 0.171875 4.453125 0.445312 4.484375 0.75 C 4.523438 1.0625 4.671875 1.320312 4.921875 1.53125 L 5.421875 1.921875 C 5.660156 2.109375 5.9375 2.1875 6.25 2.15625 C 6.5625 2.132812 6.816406 2 7.015625 1.75 Z M 7.015625 1.75 "/></g></g></g><g fill="#000000" fill-opacity="1"><g transform="translate(135.612082, 263.701333)"><g><path d="M 7.359375 0.015625 L 11.09375 -6.125 L 13.265625 -4.796875 L 7.546875 4.59375 L 5.671875 3.453125 L 5.921875 3.046875 L 5.765625 2.953125 C 5.472656 3.054688 5.09375 3.0625 4.625 2.96875 C 4.15625 2.875 3.78125 2.738281 3.5 2.5625 L 3.3125 2.453125 C 2.539062 1.984375 2.078125 1.34375 1.921875 0.53125 C 1.765625 -0.269531 1.953125 -1.109375 2.484375 -1.984375 L 6.65625 -8.828125 L 8.8125 -7.5 L 5.109375 -1.421875 C 4.941406 -1.148438 4.789062 -0.875 4.65625 -0.59375 C 4.53125 -0.320312 4.488281 -0.0546875 4.53125 0.203125 C 4.570312 0.460938 4.78125 0.707031 5.15625 0.9375 C 5.582031 1.195312 5.96875 1.25 6.3125 1.09375 C 6.664062 0.9375 7.015625 0.578125 7.359375 0.015625 Z M 7.359375 0.015625 "/></g></g></g><g fill="#000000" fill-opacity="1"><g transform="translate(145.542751, 269.607656)"><g><path d="M 9.953125 -7.96875 L 10.046875 -7.9375 C 10.867188 -7.5625 11.398438 -6.984375 11.640625 -6.203125 C 11.878906 -5.421875 11.789062 -4.5625 11.375 -3.625 L 11 -2.796875 L 8.796875 -3.796875 C 8.910156 -4.046875 9.019531 -4.320312 9.125 -4.625 C 9.226562 -4.925781 9.253906 -5.210938 9.203125 -5.484375 C 9.148438 -5.753906 8.941406 -5.972656 8.578125 -6.140625 C 7.703125 -6.535156 7 -6.144531 6.46875 -4.96875 L 3.5 1.578125 L 1.203125 0.546875 L 5.734375 -9.46875 L 7.71875 -8.578125 L 7.515625 -8.140625 L 7.703125 -8.046875 C 7.984375 -8.191406 8.351562 -8.25 8.8125 -8.21875 C 9.269531 -8.195312 9.648438 -8.113281 9.953125 -7.96875 Z M 9.953125 -7.96875 "/></g></g></g><g fill="#000000" fill-opacity="1"><g transform="translate(155.093739, 273.776449)"><g/></g></g><g fill="#000000" fill-opacity="1"><g transform="translate(161.850078, 276.172848)"><g><path d="M 6.125 -7.75 L 9.03125 -7.109375 L 10.453125 -13.453125 L 13.140625 -12.859375 L 9.78125 2.171875 L 7.09375 1.578125 L 8.5 -4.75 L 5.59375 -5.390625 L 4.1875 0.9375 L 1.515625 0.34375 L 4.875 -14.6875 L 7.546875 -14.09375 Z M 6.125 -7.75 "/></g></g></g><g fill="#000000" fill-opacity="1"><g transform="translate(174.617969, 278.856808)"><g><path d="M 9.765625 -7.015625 L 9.515625 -4.203125 L 4.03125 -4.671875 L 3.875 -2.6875 C 3.84375 -2.363281 3.929688 -2.082031 4.140625 -1.84375 C 4.347656 -1.613281 4.609375 -1.488281 4.921875 -1.46875 L 5.578125 -1.40625 C 5.878906 -1.382812 6.148438 -1.46875 6.390625 -1.65625 C 6.640625 -1.851562 6.78125 -2.113281 6.8125 -2.4375 L 6.890625 -3.34375 L 9.4375 -3.125 L 9.359375 -2.375 C 9.304688 -1.726562 9.09375 -1.148438 8.71875 -0.640625 C 8.351562 -0.128906 7.890625 0.257812 7.328125 0.53125 C 6.773438 0.800781 6.179688 0.910156 5.546875 0.859375 L 4.578125 0.765625 C 3.929688 0.710938 3.351562 0.503906 2.84375 0.140625 C 2.34375 -0.222656 1.957031 -0.6875 1.6875 -1.25 C 1.414062 -1.8125 1.304688 -2.414062 1.359375 -3.0625 L 1.765625 -7.703125 C 1.816406 -8.347656 2.023438 -8.925781 2.390625 -9.4375 C 2.753906 -9.945312 3.21875 -10.335938 3.78125 -10.609375 C 4.34375 -10.878906 4.945312 -10.988281 5.59375 -10.9375 L 6.5625 -10.84375 C 7.195312 -10.789062 7.765625 -10.582031 8.265625 -10.21875 C 8.765625 -9.851562 9.148438 -9.390625 9.421875 -8.828125 C 9.703125 -8.265625 9.816406 -7.660156 9.765625 -7.015625 Z M 4.296875 -7.640625 L 4.1875 -6.359375 L 7.125 -6.109375 L 7.234375 -7.390625 C 7.253906 -7.703125 7.160156 -7.976562 6.953125 -8.21875 C 6.753906 -8.46875 6.503906 -8.601562 6.203125 -8.625 L 5.546875 -8.6875 C 5.234375 -8.707031 4.953125 -8.613281 4.703125 -8.40625 C 4.453125 -8.207031 4.316406 -7.953125 4.296875 -7.640625 Z M 4.296875 -7.640625 "/></g></g></g><g fill="#000000" fill-opacity="1"><g transform="translate(185.790282, 279.728472)"><g><path d="M 4.125 -11.53125 L 4.59375 -11.546875 C 5.238281 -11.578125 5.832031 -11.441406 6.375 -11.140625 C 6.914062 -10.835938 7.351562 -10.425781 7.6875 -9.90625 C 8.03125 -9.394531 8.210938 -8.804688 8.234375 -8.140625 L 8.515625 -0.3125 L 7.046875 -0.25 L 6.671875 -0.71875 L 6.515625 -0.71875 C 6.335938 -0.457031 6.023438 -0.238281 5.578125 -0.0625 C 5.128906 0.113281 4.628906 0.210938 4.078125 0.234375 C 3.460938 0.253906 2.882812 0.160156 2.34375 -0.046875 C 1.800781 -0.265625 1.351562 -0.609375 1 -1.078125 C 0.65625 -1.546875 0.46875 -2.148438 0.4375 -2.890625 L 0.4375 -3.15625 C 0.414062 -3.769531 0.59375 -4.296875 0.96875 -4.734375 C 1.351562 -5.179688 1.832031 -5.5625 2.40625 -5.875 C 2.988281 -6.1875 3.578125 -6.445312 4.171875 -6.65625 C 4.773438 -6.875 5.296875 -7.0625 5.734375 -7.21875 L 5.703125 -8.203125 C 5.691406 -8.515625 5.566406 -8.773438 5.328125 -8.984375 C 5.085938 -9.203125 4.816406 -9.304688 4.515625 -9.296875 L 4.359375 -9.296875 C 4.035156 -9.285156 3.757812 -9.160156 3.53125 -8.921875 C 3.3125 -8.691406 3.207031 -8.421875 3.21875 -8.109375 L 3.25 -7.203125 L 0.734375 -7.109375 L 0.703125 -7.859375 C 0.679688 -8.503906 0.816406 -9.097656 1.109375 -9.640625 C 1.410156 -10.191406 1.828125 -10.640625 2.359375 -10.984375 C 2.890625 -11.328125 3.476562 -11.507812 4.125 -11.53125 Z M 5.875 -3.234375 L 5.8125 -5.140625 C 5.332031 -4.929688 4.875 -4.757812 4.4375 -4.625 C 4 -4.5 3.644531 -4.3125 3.375 -4.0625 C 3.113281 -3.820312 2.992188 -3.425781 3.015625 -2.875 L 3.015625 -2.65625 C 3.023438 -2.40625 3.113281 -2.234375 3.28125 -2.140625 C 3.457031 -2.046875 3.757812 -2.007812 4.1875 -2.03125 L 4.78125 -2.046875 C 5.082031 -2.054688 5.34375 -2.175781 5.5625 -2.40625 C 5.78125 -2.632812 5.882812 -2.910156 5.875 -3.234375 Z M 5.875 -3.234375 "/></g></g></g><g fill="#000000" fill-opacity="1"><g transform="translate(196.604353, 279.17918)"><g><path d="M 3.8125 -0.5 L 1.296875 -0.171875 L -0.703125 -15.453125 L 1.8125 -15.78125 Z M 3.8125 -0.5 "/></g></g></g><g fill="#000000" fill-opacity="1"><g transform="translate(202.906569, 278.379905)"><g><path d="M 5.078125 -3.90625 L 4.8125 -5.09375 L 7.296875 -5.640625 L 7.53125 -4.609375 C 7.65625 -4.035156 7.628906 -3.472656 7.453125 -2.921875 C 7.285156 -2.378906 6.992188 -1.914062 6.578125 -1.53125 C 6.171875 -1.144531 5.671875 -0.882812 5.078125 -0.75 L 4.296875 -0.578125 C 3.734375 -0.453125 3.179688 -0.476562 2.640625 -0.65625 C 2.097656 -0.832031 1.625 -1.128906 1.21875 -1.546875 C 0.820312 -1.960938 0.5625 -2.457031 0.4375 -3.03125 L -2.09375 -14.4375 L 0.375 -14.984375 L 1.140625 -11.515625 L 3.515625 -12.046875 L 3.984375 -9.9375 L 1.609375 -9.40625 L 2.9375 -3.421875 C 2.988281 -3.191406 3.117188 -3.019531 3.328125 -2.90625 C 3.535156 -2.789062 3.75 -2.753906 3.96875 -2.796875 L 4.4375 -2.90625 C 4.65625 -2.957031 4.828125 -3.078125 4.953125 -3.265625 C 5.085938 -3.460938 5.128906 -3.675781 5.078125 -3.90625 Z M 5.078125 -3.90625 "/></g></g></g><g fill="#000000" fill-opacity="1"><g transform="translate(212.744327, 276.149945)"><g><path d="M 1.796875 -12.6875 L 2 -12.765625 C 2.863281 -13.066406 3.648438 -13.015625 4.359375 -12.609375 C 5.078125 -12.210938 5.609375 -11.523438 5.953125 -10.546875 L 8.59375 -3.015625 L 6.203125 -2.1875 L 3.84375 -8.90625 C 3.738281 -9.207031 3.617188 -9.492188 3.484375 -9.765625 C 3.359375 -10.046875 3.175781 -10.253906 2.9375 -10.390625 C 2.707031 -10.523438 2.382812 -10.515625 1.96875 -10.359375 C 1.050781 -10.046875 0.8125 -9.28125 1.25 -8.0625 L 3.625 -1.28125 L 1.234375 -0.4375 L -3.875 -14.96875 L -1.484375 -15.8125 L 0.140625 -11.203125 L 0.328125 -11.265625 C 0.441406 -11.566406 0.632812 -11.847656 0.90625 -12.109375 C 1.175781 -12.378906 1.472656 -12.570312 1.796875 -12.6875 Z M 1.796875 -12.6875 "/></g></g></g><g fill="#000000" fill-opacity="1"><g transform="translate(223.511092, 272.181692)"><g/></g></g><g fill="#000000" fill-opacity="1"><g transform="translate(229.973689, 269.198477)"><g><path d="M 0.46875 -0.28125 L -4.765625 -15.109375 L -2.234375 -16.640625 L 8.453125 -5.09375 L 6.09375 -3.6875 L 4.0625 -5.96875 L 1.75 -4.578125 L 2.828125 -1.703125 Z M -0.609375 -10.90625 L 0.875 -6.890625 L 2.40625 -7.796875 L -0.453125 -11 Z M -0.609375 -10.90625 "/></g></g></g><g fill="#000000" fill-opacity="1"><g transform="translate(240.11783, 262.964555)"><g><path d="M -2.578125 -12.484375 C -2.078125 -12.890625 -1.515625 -13.132812 -0.890625 -13.21875 C -0.273438 -13.300781 0.320312 -13.238281 0.90625 -13.03125 C 1.488281 -12.820312 1.988281 -12.457031 2.40625 -11.9375 L 5.296875 -8.296875 C 5.703125 -7.785156 5.945312 -7.21875 6.03125 -6.59375 C 6.125 -5.96875 6.054688 -5.363281 5.828125 -4.78125 C 5.609375 -4.195312 5.25 -3.703125 4.75 -3.296875 L 4.453125 -3.0625 C 4.265625 -2.914062 4.019531 -2.789062 3.71875 -2.6875 C 3.414062 -2.59375 3.191406 -2.582031 3.046875 -2.65625 L 2.890625 -2.53125 L 6.1875 1.609375 L 4.21875 3.1875 L -5.828125 -9.40625 L -4.109375 -10.78125 L -3.8125 -10.40625 L -3.6875 -10.515625 C -3.675781 -10.890625 -3.570312 -11.242188 -3.375 -11.578125 C -3.1875 -11.910156 -2.921875 -12.210938 -2.578125 -12.484375 Z M 3.390625 -6.5625 L 0.28125 -10.453125 C 0.0820312 -10.703125 -0.164062 -10.84375 -0.46875 -10.875 C -0.78125 -10.914062 -1.0625 -10.832031 -1.3125 -10.625 L -1.78125 -10.265625 C -2.019531 -10.066406 -2.15625 -9.8125 -2.1875 -9.5 C -2.226562 -9.195312 -2.148438 -8.921875 -1.953125 -8.671875 L 1.15625 -4.78125 C 1.351562 -4.53125 1.601562 -4.382812 1.90625 -4.34375 C 2.21875 -4.3125 2.492188 -4.394531 2.734375 -4.59375 L 3.203125 -4.953125 C 3.453125 -5.160156 3.59375 -5.414062 3.625 -5.71875 C 3.664062 -6.03125 3.585938 -6.3125 3.390625 -6.5625 Z M 3.390625 -6.5625 "/></g></g></g><g fill="#000000" fill-opacity="1"><g transform="translate(249.348621, 255.480563)"><g><path d="M -4.1875 -12.046875 C -3.738281 -12.503906 -3.210938 -12.816406 -2.609375 -12.984375 C -2.003906 -13.148438 -1.398438 -13.164062 -0.796875 -13.03125 C -0.191406 -12.894531 0.347656 -12.597656 0.828125 -12.140625 L 4.1875 -8.90625 C 4.65625 -8.457031 4.96875 -7.925781 5.125 -7.3125 C 5.289062 -6.707031 5.300781 -6.097656 5.15625 -5.484375 C 5.007812 -4.878906 4.710938 -4.347656 4.265625 -3.890625 L 4.015625 -3.609375 C 3.847656 -3.441406 3.617188 -3.289062 3.328125 -3.15625 C 3.046875 -3.019531 2.832031 -2.976562 2.6875 -3.03125 L 2.546875 -2.890625 L 6.359375 0.796875 L 4.59375 2.625 L -7.015625 -8.578125 L -5.484375 -10.171875 L -5.125 -9.828125 L -5.015625 -9.9375 C -5.054688 -10.320312 -5.003906 -10.6875 -4.859375 -11.03125 C -4.710938 -11.382812 -4.488281 -11.722656 -4.1875 -12.046875 Z M 2.5 -6.9375 L -1.078125 -10.390625 C -1.304688 -10.609375 -1.570312 -10.710938 -1.875 -10.703125 C -2.1875 -10.703125 -2.453125 -10.585938 -2.671875 -10.359375 L -3.09375 -9.921875 C -3.3125 -9.703125 -3.414062 -9.4375 -3.40625 -9.125 C -3.40625 -8.8125 -3.289062 -8.546875 -3.0625 -8.328125 L 0.515625 -4.875 C 0.742188 -4.644531 1.015625 -4.535156 1.328125 -4.546875 C 1.640625 -4.554688 1.90625 -4.671875 2.125 -4.890625 L 2.546875 -5.328125 C 2.765625 -5.554688 2.867188 -5.820312 2.859375 -6.125 C 2.847656 -6.4375 2.726562 -6.707031 2.5 -6.9375 Z M 2.5 -6.9375 "/></g></g></g></svg>