<svg xmlns="http://www.w3.org/2000/svg" xmlns:xlink="http://www.w3.org/1999/xlink" width="500" zoomAndPan="magnify" viewBox="0 0 375 374.999991" height="500" preserveAspectRatio="xMidYMid meet" version="1.0"><defs><g/><clipPath id="e858a4ec7b"><path d="M 170 134 L 227.570312 134 L 227.570312 191.925781 L 170 191.925781 Z M 170 134 " clip-rule="nonzero"/></clipPath><clipPath id="1cf97534ca"><path d="M 147.320312 111.675781 L 205 111.675781 L 205 170 L 147.320312 170 Z M 147.320312 111.675781 " clip-rule="nonzero"/></clipPath></defs><g clip-path="url(#e858a4ec7b)"><path fill="#35afc4" d="M 195.078125 141.910156 L 194.523438 141.910156 C 189.035156 142.054688 184.792969 144.1875 181.960938 147.871094 C 178.945312 151.769531 177.359375 157.46875 177.390625 164.410156 L 177.40625 165.425781 L 177.421875 165.507812 L 177.421875 184.554688 L 192.3125 184.554688 C 193.734375 184.554688 195.011719 183.964844 195.960938 183.035156 C 196.894531 182.101562 197.484375 180.804688 197.484375 179.382812 L 197.484375 167.636719 L 202.695312 161.839844 L 220.21875 161.839844 L 220.21875 146.9375 C 220.21875 145.527344 219.628906 144.234375 218.695312 143.285156 C 217.761719 142.351562 216.46875 141.761719 215.042969 141.761719 L 206.9375 141.761719 L 206.9375 134.390625 L 215.042969 134.390625 C 218.480469 134.390625 221.625 135.800781 223.886719 138.078125 C 226.164062 140.351562 227.570312 143.480469 227.570312 146.921875 L 227.570312 169.160156 L 205.953125 169.160156 L 204.839844 170.40625 L 204.839844 179.382812 C 204.839844 182.835938 203.429688 185.964844 201.15625 188.242188 C 198.878906 190.519531 195.75 191.925781 192.3125 191.925781 L 170.054688 191.925781 L 170.054688 165.507812 L 170.070312 165.507812 L 170.054688 164.410156 C 170.019531 155.8125 172.132812 148.574219 176.164062 143.382812 C 180.355469 137.945312 186.511719 134.785156 194.359375 134.589844 L 194.996094 134.570312 Z M 195.078125 141.910156 " fill-opacity="1" fill-rule="nonzero"/></g><g clip-path="url(#1cf97534ca)"><path fill="#90d442" d="M 179.816406 161.691406 L 180.371094 161.691406 C 185.859375 161.546875 190.097656 159.417969 192.933594 155.730469 C 195.945312 151.835938 197.535156 146.132812 197.503906 139.191406 L 197.484375 138.175781 L 197.46875 138.09375 L 197.46875 119.046875 L 182.582031 119.046875 C 181.15625 119.046875 179.878906 119.636719 178.929688 120.570312 C 177.996094 121.503906 177.40625 122.796875 177.40625 124.222656 L 177.40625 135.964844 L 172.214844 141.761719 L 154.691406 141.761719 L 154.691406 156.664062 C 154.691406 158.074219 155.28125 159.367188 156.214844 160.316406 C 157.148438 161.25 158.441406 161.839844 159.867188 161.839844 L 167.957031 161.839844 L 167.957031 169.210938 L 159.851562 169.210938 C 156.410156 169.210938 153.265625 167.800781 151.007812 165.527344 C 148.730469 163.25 147.320312 160.121094 147.320312 156.683594 L 147.320312 134.425781 L 168.941406 134.425781 L 170.054688 133.179688 L 170.054688 124.203125 C 170.054688 120.75 171.460938 117.621094 173.738281 115.34375 C 176 113.085938 179.144531 111.675781 182.582031 111.675781 L 204.839844 111.675781 L 204.839844 138.09375 L 204.824219 138.09375 L 204.839844 139.191406 C 204.871094 147.789062 202.757812 155.027344 198.730469 160.21875 C 194.539062 165.65625 188.378906 168.816406 180.535156 169.015625 L 179.894531 169.03125 Z M 179.816406 161.691406 " fill-opacity="1" fill-rule="nonzero"/></g><g fill="#545454" fill-opacity="1"><g transform="translate(81.359524, 225.870449)"><g><path d="M 17.84375 -10.875 C 19.039062 -10.5 19.976562 -9.867188 20.65625 -8.984375 C 21.332031 -8.097656 21.671875 -7.003906 21.671875 -5.703125 C 21.671875 -3.867188 20.957031 -2.457031 19.53125 -1.46875 C 18.101562 -0.488281 16.023438 0 13.296875 0 L 2.484375 0 L 2.484375 -20.921875 L 12.703125 -20.921875 C 15.253906 -20.921875 17.210938 -20.429688 18.578125 -19.453125 C 19.941406 -18.484375 20.625 -17.160156 20.625 -15.484375 C 20.625 -14.460938 20.378906 -13.550781 19.890625 -12.75 C 19.398438 -11.957031 18.71875 -11.332031 17.84375 -10.875 Z M 7.296875 -17.28125 L 7.296875 -12.34375 L 12.109375 -12.34375 C 13.304688 -12.34375 14.210938 -12.550781 14.828125 -12.96875 C 15.441406 -13.382812 15.75 -14.003906 15.75 -14.828125 C 15.75 -15.640625 15.441406 -16.25 14.828125 -16.65625 C 14.210938 -17.070312 13.304688 -17.28125 12.109375 -17.28125 Z M 12.9375 -3.640625 C 14.21875 -3.640625 15.179688 -3.847656 15.828125 -4.265625 C 16.472656 -4.691406 16.796875 -5.34375 16.796875 -6.21875 C 16.796875 -7.945312 15.507812 -8.8125 12.9375 -8.8125 L 7.296875 -8.8125 L 7.296875 -3.640625 Z M 12.9375 -3.640625 "/></g></g></g><g fill="#545454" fill-opacity="1"><g transform="translate(104.221292, 225.870449)"><g><path d="M 2.484375 -20.921875 L 7.328125 -20.921875 L 7.328125 -3.953125 L 17.8125 -3.953125 L 17.8125 0 L 2.484375 0 Z M 2.484375 -20.921875 "/></g></g></g><g fill="#545454" fill-opacity="1"><g transform="translate(122.271629, 225.870449)"><g><path d="M 11.78125 0.359375 C 8.789062 0.359375 6.460938 -0.46875 4.796875 -2.125 C 3.128906 -3.78125 2.296875 -6.140625 2.296875 -9.203125 L 2.296875 -20.921875 L 7.140625 -20.921875 L 7.140625 -9.390625 C 7.140625 -5.640625 8.695312 -3.765625 11.8125 -3.765625 C 13.320312 -3.765625 14.472656 -4.21875 15.265625 -5.125 C 16.066406 -6.03125 16.46875 -7.453125 16.46875 -9.390625 L 16.46875 -20.921875 L 21.25 -20.921875 L 21.25 -9.203125 C 21.25 -6.140625 20.414062 -3.78125 18.75 -2.125 C 17.09375 -0.46875 14.769531 0.359375 11.78125 0.359375 Z M 11.78125 0.359375 "/></g></g></g><g fill="#545454" fill-opacity="1"><g transform="translate(145.820746, 225.870449)"><g><path d="M 18.6875 -3.890625 L 18.6875 0 L 2.484375 0 L 2.484375 -20.921875 L 18.296875 -20.921875 L 18.296875 -17.03125 L 7.296875 -17.03125 L 7.296875 -12.5 L 17 -12.5 L 17 -8.734375 L 7.296875 -8.734375 L 7.296875 -3.890625 Z M 18.6875 -3.890625 "/></g></g></g><g fill="#545454" fill-opacity="1"><g transform="translate(165.873357, 225.870449)"><g><path d="M 21.671875 -20.921875 L 21.671875 0 L 16.828125 0 L 16.828125 -8.578125 L 7.328125 -8.578125 L 7.328125 0 L 2.484375 0 L 2.484375 -20.921875 L 7.328125 -20.921875 L 7.328125 -12.671875 L 16.828125 -12.671875 L 16.828125 -20.921875 Z M 21.671875 -20.921875 "/></g></g></g><g fill="#545454" fill-opacity="1"><g transform="translate(190.020167, 225.870449)"><g><path d="M 18.6875 -3.890625 L 18.6875 0 L 2.484375 0 L 2.484375 -20.921875 L 18.296875 -20.921875 L 18.296875 -17.03125 L 7.296875 -17.03125 L 7.296875 -12.5 L 17 -12.5 L 17 -8.734375 L 7.296875 -8.734375 L 7.296875 -3.890625 Z M 18.6875 -3.890625 "/></g></g></g><g fill="#545454" fill-opacity="1"><g transform="translate(210.072778, 225.870449)"><g><path d="M 16.265625 -4.484375 L 6.546875 -4.484375 L 4.6875 0 L -0.265625 0 L 9.0625 -20.921875 L 13.84375 -20.921875 L 23.1875 0 L 18.109375 0 Z M 14.734375 -8.15625 L 11.421875 -16.171875 L 8.09375 -8.15625 Z M 14.734375 -8.15625 "/></g></g></g><g fill="#545454" fill-opacity="1"><g transform="translate(232.964432, 225.870449)"><g><path d="M 2.484375 -20.921875 L 7.328125 -20.921875 L 7.328125 -3.953125 L 17.8125 -3.953125 L 17.8125 0 L 2.484375 0 Z M 2.484375 -20.921875 "/></g></g></g><g fill="#545454" fill-opacity="1"><g transform="translate(251.01476, 225.870449)"><g><path d="M 6.8125 -16.984375 L 0.125 -16.984375 L 0.125 -20.921875 L 18.359375 -20.921875 L 18.359375 -16.984375 L 11.65625 -16.984375 L 11.65625 0 L 6.8125 0 Z M 6.8125 -16.984375 "/></g></g></g><g fill="#545454" fill-opacity="1"><g transform="translate(269.483485, 225.870449)"><g><path d="M 21.671875 -20.921875 L 21.671875 0 L 16.828125 0 L 16.828125 -8.578125 L 7.328125 -8.578125 L 7.328125 0 L 2.484375 0 L 2.484375 -20.921875 L 7.328125 -20.921875 L 7.328125 -12.671875 L 16.828125 -12.671875 L 16.828125 -20.921875 Z M 21.671875 -20.921875 "/></g></g></g></svg>